<svg width="129" height="56" viewBox="0 0 129 56" fill="none" xmlns="http://www.w3.org/2000/svg">
<path d="M5.418 54.89C5.418 54.61 5.47867 54.12 5.6 53.42C5.73067 52.72 5.81467 52.244 5.852 51.992L5.712 51.922C5.36667 52.3793 4.96067 52.734 4.494 52.986C4.02733 53.2287 3.56067 53.35 3.094 53.35C2.37533 53.35 1.77333 53.07 1.288 52.51C0.802667 51.9407 0.56 51.124 0.56 50.06C0.56 48.6507 0.961333 47.4093 1.764 46.336C2.156 45.8133 2.674 45.3933 3.318 45.076C3.97133 44.7587 4.65733 44.6 5.376 44.6C6.104 44.6 6.762 44.7587 7.35 45.076C7.69533 44.992 8.05 44.95 8.414 44.95C9.254 44.95 9.674 45.4073 9.674 46.322C9.674 46.4713 9.576 46.9567 9.38 47.778C8.81067 50.242 8.526 52.1973 8.526 53.644L9.226 54.764C8.31133 55.4453 7.448 55.786 6.636 55.786C6.20667 55.786 5.894 55.7067 5.698 55.548C5.51133 55.3893 5.418 55.17 5.418 54.89ZM4.522 51.25C5.12867 51.25 5.64667 50.942 6.076 50.326C6.29067 48.9073 6.524 47.4653 6.776 46C6.524 45.944 6.29533 45.916 6.09 45.916C5.46467 45.916 4.928 46.0933 4.48 46.448C3.63067 47.092 3.206 48.016 3.206 49.22C3.206 49.7893 3.32267 50.27 3.556 50.662C3.78933 51.054 4.11133 51.25 4.522 51.25ZM20.4443 53.35C19.6229 53.35 19.0489 53.1493 18.7223 52.748C18.3956 52.3467 18.2323 51.8427 18.2323 51.236C18.2323 50.62 18.3349 49.78 18.5403 48.716C18.7456 47.652 18.8483 46.882 18.8483 46.406C18.8483 45.93 18.7503 45.5567 18.5543 45.286C19.4223 44.8287 20.1549 44.6 20.7523 44.6C21.1349 44.6 21.4103 44.6793 21.5783 44.838C21.7556 44.9873 21.8443 45.2347 21.8443 45.58C21.8443 45.9253 21.6996 46.7747 21.4103 48.128C21.1303 49.472 20.9903 50.3027 20.9903 50.62C20.9903 50.9373 21.0789 51.1893 21.2563 51.376C21.4336 51.5533 21.6669 51.642 21.9563 51.642C22.2456 51.642 22.5536 51.53 22.8803 51.306C23.2069 51.0727 23.4729 50.746 23.6783 50.326C23.8089 49.57 24.0656 48.3753 24.4483 46.742L23.6083 45.622C24.5509 44.9407 25.4469 44.6 26.2963 44.6C26.7163 44.6 27.0149 44.6793 27.1923 44.838C27.3789 44.9873 27.4723 45.2207 27.4723 45.538C27.4723 45.846 27.2996 46.7373 26.9543 48.212C26.6183 49.6867 26.4503 50.7367 26.4503 51.362C26.4503 51.978 26.5949 52.412 26.8843 52.664C26.3616 53.1213 25.8109 53.35 25.2323 53.35C24.6629 53.35 24.2523 53.224 24.0003 52.972C23.7483 52.72 23.6223 52.3887 23.6223 51.978L23.4823 51.908C23.1743 52.356 22.7449 52.7107 22.1943 52.972C21.6529 53.224 21.0696 53.35 20.4443 53.35ZM40.9917 51.278L40.8517 51.208C40.5997 51.88 40.2357 52.4073 39.7597 52.79C39.293 53.1633 38.7703 53.35 38.1917 53.35C37.3983 53.35 36.7637 53.0513 36.2877 52.454C35.8117 51.8567 35.5737 51.0587 35.5737 50.06C35.5737 48.5107 36.0917 47.2133 37.1277 46.168C38.173 45.1227 39.4703 44.6 41.0197 44.6C41.421 44.6 41.7897 44.6373 42.1257 44.712C42.1817 44.9733 42.2143 45.202 42.2237 45.398C42.6903 45.0993 43.171 44.95 43.6657 44.95C44.347 44.95 44.6877 45.3187 44.6877 46.056C44.6877 46.3173 44.5383 47.106 44.2397 48.422C43.9503 49.738 43.8057 50.7133 43.8057 51.348C43.8057 51.9827 43.9503 52.4213 44.2397 52.664C43.717 53.1213 43.171 53.35 42.6017 53.35C42.0417 53.35 41.631 53.182 41.3697 52.846C41.1177 52.51 40.9917 51.9873 40.9917 51.278ZM38.2057 49.374C38.2057 49.8313 38.299 50.186 38.4857 50.438C38.6817 50.6807 38.957 50.802 39.3117 50.802C39.6663 50.802 40.0163 50.6713 40.3617 50.41C40.707 50.1487 40.9963 49.7893 41.2297 49.332C41.3137 48.3893 41.4957 47.274 41.7757 45.986C40.833 45.986 40.0023 46.3267 39.2837 47.008C38.565 47.6893 38.2057 48.478 38.2057 49.374ZM58.3703 51.978L58.2303 51.908C57.5023 52.8693 56.6343 53.35 55.6263 53.35C54.8796 53.35 54.2449 53.056 53.7223 52.468C53.2089 51.8707 52.9523 51.068 52.9523 50.06C52.9523 48.8093 53.3909 47.6707 54.2683 46.644C54.6976 46.14 55.2716 45.734 55.9903 45.426C56.7089 45.1087 57.5116 44.95 58.3983 44.95C58.5663 44.95 58.8649 44.9687 59.2943 45.006C59.3129 44.81 59.3549 44.572 59.4203 44.292L58.6363 43.172C59.8029 42.4907 60.7223 42.15 61.3943 42.15C61.7769 42.15 62.0476 42.2293 62.2063 42.388C62.3649 42.5373 62.4443 42.8267 62.4443 43.256C62.4443 43.676 62.2343 44.8707 61.8143 46.84C61.4036 48.8093 61.1983 50.2093 61.1983 51.04C61.1983 51.8613 61.3429 52.4027 61.6323 52.664C61.1096 53.1213 60.5636 53.35 59.9943 53.35C59.4343 53.35 59.0236 53.21 58.7623 52.93C58.5009 52.6407 58.3703 52.3233 58.3703 51.978ZM55.5843 49.528C55.5843 50.06 55.7196 50.48 55.9903 50.788C56.2703 51.096 56.6156 51.25 57.0263 51.25C57.5583 51.25 58.0436 50.998 58.4823 50.494C58.6316 48.8327 58.8416 47.3953 59.1123 46.182C58.0389 46.182 57.1803 46.5273 56.5363 47.218C55.9016 47.9087 55.5843 48.6787 55.5843 49.528ZM70.7189 50.34C70.7189 49.556 71.0223 47.54 71.6289 44.292L70.8449 43.172C71.4236 42.8267 71.9089 42.57 72.3009 42.402C72.7023 42.234 73.0989 42.15 73.4909 42.15C73.8923 42.15 74.1863 42.2293 74.3729 42.388C74.5596 42.5467 74.6529 42.7987 74.6529 43.144C74.6529 43.7413 74.4709 44.9127 74.1069 46.658L74.2469 46.728C74.9189 45.3933 75.8989 44.726 77.1869 44.726C77.9149 44.726 78.4843 45.0387 78.8949 45.664C79.3056 46.28 79.5109 47.0313 79.5109 47.918C79.5109 48.7953 79.3336 49.5887 78.9789 50.298C78.6336 50.998 78.1809 51.5673 77.6209 52.006C77.0703 52.4353 76.4683 52.7667 75.8149 53C75.1616 53.2333 74.5129 53.35 73.8689 53.35C72.8143 53.35 72.0256 53.1073 71.5029 52.622C70.9803 52.1367 70.7189 51.376 70.7189 50.34ZM73.4909 51.726C74.5269 51.726 75.3669 51.3713 76.0109 50.662C76.6643 49.9527 76.9909 49.1593 76.9909 48.282C76.9909 47.8807 76.8789 47.5167 76.6549 47.19C76.4403 46.8633 76.1556 46.7 75.8009 46.7C75.4463 46.7 75.1149 46.8447 74.8069 47.134C74.5083 47.4233 74.2749 47.7687 74.1069 48.17C73.9483 48.5713 73.8176 49.024 73.7149 49.528C73.5656 50.3213 73.4909 51.054 73.4909 51.726ZM92.4365 42.388C92.4365 42.7427 92.2499 43.0507 91.8765 43.312C91.5032 43.564 91.0785 43.69 90.6025 43.69C90.1265 43.69 89.7485 43.5967 89.4685 43.41C89.1979 43.2233 89.0625 42.9713 89.0625 42.654C89.0625 42.2247 89.2632 41.8887 89.6645 41.646C90.0659 41.4033 90.4905 41.282 90.9385 41.282C91.3865 41.282 91.7459 41.3753 92.0165 41.562C92.2965 41.7487 92.4365 42.024 92.4365 42.388ZM89.7065 53.35C89.1279 53.35 88.7079 53.2053 88.4465 52.916C88.1852 52.6267 88.0545 52.188 88.0545 51.6C88.0545 51.0027 88.3532 49.4113 88.9505 46.826L88.1665 45.65C89.3332 44.95 90.2525 44.6 90.9245 44.6C91.3072 44.6 91.5779 44.684 91.7365 44.852C91.8952 45.0107 91.9745 45.272 91.9745 45.636C91.9745 45.776 91.8019 46.5973 91.4565 48.1C91.1112 49.6027 90.9385 50.676 90.9385 51.32C90.9385 51.964 91.0832 52.412 91.3725 52.664C90.8499 53.1213 90.2945 53.35 89.7065 53.35ZM101.588 44.292L100.804 43.172C101.971 42.4907 102.89 42.15 103.562 42.15C103.945 42.15 104.216 42.2293 104.374 42.388C104.533 42.5373 104.612 42.794 104.612 43.158C104.612 43.5127 104.552 44.012 104.43 44.656C104.318 45.3 104.164 46.0607 103.968 46.938C103.782 47.8153 103.646 48.52 103.562 49.052L104.444 48.268C104.528 48.1933 104.664 48.0767 104.85 47.918C105.046 47.75 105.182 47.6287 105.256 47.554C105.34 47.4793 105.452 47.3767 105.592 47.246C105.732 47.106 105.835 46.9893 105.9 46.896C105.966 46.8027 106.04 46.6953 106.124 46.574C106.255 46.3687 106.32 46.14 106.32 45.888C106.32 45.6267 106.283 45.398 106.208 45.202C106.871 44.8007 107.496 44.6 108.084 44.6C108.476 44.6 108.789 44.726 109.022 44.978C109.256 45.2207 109.372 45.5753 109.372 46.042C109.372 46.5087 109.158 46.98 108.728 47.456C108.308 47.9227 107.786 48.3333 107.16 48.688C107.45 49.6493 107.823 50.5313 108.28 51.334C108.738 52.1367 109.12 52.6173 109.428 52.776C109.055 53.1587 108.476 53.35 107.692 53.35C107.114 53.35 106.624 53.154 106.222 52.762C105.83 52.37 105.48 51.726 105.172 50.83L104.822 49.836L103.38 50.55C103.371 50.6527 103.366 50.8067 103.366 51.012C103.366 51.7867 103.511 52.3373 103.8 52.664C103.147 53.1213 102.554 53.35 102.022 53.35C101.49 53.35 101.098 53.1773 100.846 52.832C100.604 52.4773 100.482 51.992 100.482 51.376C100.482 50.76 100.655 49.5 101 47.596C101.346 45.692 101.542 44.5907 101.588 44.292ZM121.337 53.35C120.058 53.35 119.069 53.0187 118.369 52.356C117.678 51.6933 117.333 50.7973 117.333 49.668C117.333 48.1653 117.846 46.9473 118.873 46.014C119.909 45.0713 121.206 44.6 122.765 44.6C123.633 44.6 124.291 44.796 124.739 45.188C125.187 45.5707 125.411 46.0793 125.411 46.714C125.411 47.582 124.986 48.3053 124.137 48.884C123.297 49.4533 121.995 49.7427 120.231 49.752C120.259 50.3493 120.394 50.8207 120.637 51.166C120.88 51.502 121.183 51.67 121.547 51.67C121.911 51.67 122.224 51.5487 122.485 51.306C122.756 51.0633 122.891 50.6667 122.891 50.116C124.254 50.116 124.935 50.438 124.935 51.082C124.935 51.6327 124.599 52.1507 123.927 52.636C123.255 53.112 122.392 53.35 121.337 53.35ZM122.527 46.238C122.051 46.238 121.612 46.476 121.211 46.952C120.819 47.428 120.534 47.988 120.357 48.632C121.29 48.5573 121.99 48.3473 122.457 48.002C122.933 47.6473 123.171 47.274 123.171 46.882C123.171 46.6953 123.11 46.5413 122.989 46.42C122.877 46.2987 122.723 46.238 122.527 46.238Z" fill="#037E8C"/>
<path d="M0.144536 18.0309C0.374664 17.9724 23.3661 12.1066 40.6772 3.89026C42.6029 2.97633 44.1621 2.43452 45.4754 2.17919C44.004 3.76582 35.3479 7.7212 42.2612 8.42211C48.6044 9.0659 38.1552 17.1206 33.3651 20.049C20.7654 24.3241 12.588 26.003 12.4411 26.0328L12.6144 27.0219C12.6573 27.0131 13.3897 26.8629 14.715 26.5491C21.6606 24.9042 44.9756 18.7442 71.7241 4.66705C75.4752 2.69288 78.5367 1.59808 81.1133 1.1918C80.358 5.33904 71.6121 14.51 85.5795 16.8257C98.3187 18.9377 72.7716 24.3003 63.2504 27.0307C61.8772 27.4246 60.8369 27.7637 60.2936 28.0302C56.0899 30.0935 104.958 28.2375 126.812 28.1435C127.525 28.1704 128.252 28.1858 129 28.1858V27.1793C109.481 27.1793 102.567 17.6272 97.0118 9.95201C91.2393 1.97585 86.6796 -4.32507 71.3093 3.7638C67.7378 5.64224 64.1272 7.43453 60.4805 9.13945C57.2577 7.91215 55.306 6.14697 53.596 4.59752C50.4122 1.71245 48.1115 -0.372384 40.4235 3.27731C23.1661 11.4675 0.229501 17.3199 0 17.3779L0.144536 18.0309Z" fill="#037E8C"/>
</svg>
